<mxfile host="app.diagrams.net" modified="2024-04-22T12:58:53.533Z" agent="Mozilla/5.0 (Windows NT 10.0; Win64; x64) AppleWebKit/537.36 (KHTML, like Gecko) Chrome/123.0.0.0 Safari/537.36" etag="AUKiHaPItEjHNEBfdhut" version="24.2.2" type="github">
  <diagram name="第 1 页" id="EgYMsfJAQKjL_qMN2GMh">
    <mxGraphModel dx="1647" dy="838" grid="1" gridSize="10" guides="1" tooltips="1" connect="1" arrows="1" fold="1" page="1" pageScale="1" pageWidth="827" pageHeight="1169" math="0" shadow="0">
      <root>
        <mxCell id="0" />
        <mxCell id="1" parent="0" />
        <mxCell id="QbWQWO0vrT6BwD4tMdgq-1" value="" style="edgeStyle=orthogonalEdgeStyle;rounded=0;orthogonalLoop=1;jettySize=auto;html=1;fontSize=16;" parent="1" source="QbWQWO0vrT6BwD4tMdgq-2" target="QbWQWO0vrT6BwD4tMdgq-4" edge="1">
          <mxGeometry relative="1" as="geometry" />
        </mxCell>
        <mxCell id="QbWQWO0vrT6BwD4tMdgq-2" value="采集用户行为数据" style="rounded=0;whiteSpace=wrap;html=1;fontSize=16;" parent="1" vertex="1">
          <mxGeometry x="40" y="370" width="230" height="60" as="geometry" />
        </mxCell>
        <mxCell id="QbWQWO0vrT6BwD4tMdgq-3" value="" style="edgeStyle=orthogonalEdgeStyle;rounded=0;orthogonalLoop=1;jettySize=auto;html=1;fontSize=16;" parent="1" source="QbWQWO0vrT6BwD4tMdgq-4" target="QbWQWO0vrT6BwD4tMdgq-6" edge="1">
          <mxGeometry relative="1" as="geometry" />
        </mxCell>
        <mxCell id="QbWQWO0vrT6BwD4tMdgq-4" value="特征选择与处理" style="rounded=0;whiteSpace=wrap;html=1;fontSize=16;" parent="1" vertex="1">
          <mxGeometry x="40" y="510" width="230" height="60" as="geometry" />
        </mxCell>
        <mxCell id="QbWQWO0vrT6BwD4tMdgq-5" value="" style="edgeStyle=orthogonalEdgeStyle;rounded=0;orthogonalLoop=1;jettySize=auto;html=1;fontSize=16;" parent="1" source="QbWQWO0vrT6BwD4tMdgq-6" target="QbWQWO0vrT6BwD4tMdgq-8" edge="1">
          <mxGeometry relative="1" as="geometry" />
        </mxCell>
        <mxCell id="QbWQWO0vrT6BwD4tMdgq-6" value="快速离群点检测" style="rounded=0;whiteSpace=wrap;html=1;fontSize=16;" parent="1" vertex="1">
          <mxGeometry x="40" y="640" width="230" height="60" as="geometry" />
        </mxCell>
        <mxCell id="QbWQWO0vrT6BwD4tMdgq-7" value="" style="edgeStyle=orthogonalEdgeStyle;rounded=0;orthogonalLoop=1;jettySize=auto;html=1;fontSize=16;" parent="1" source="QbWQWO0vrT6BwD4tMdgq-8" target="QbWQWO0vrT6BwD4tMdgq-9" edge="1">
          <mxGeometry relative="1" as="geometry" />
        </mxCell>
        <mxCell id="QbWQWO0vrT6BwD4tMdgq-8" value="构建行为模型" style="rounded=0;whiteSpace=wrap;html=1;fontSize=16;" parent="1" vertex="1">
          <mxGeometry x="40" y="770" width="230" height="60" as="geometry" />
        </mxCell>
        <mxCell id="QbWQWO0vrT6BwD4tMdgq-9" value="joblib保存模型&lt;div style=&quot;font-size: 16px;&quot;&gt;内存快照&lt;/div&gt;" style="rounded=0;whiteSpace=wrap;html=1;fontSize=16;" parent="1" vertex="1">
          <mxGeometry x="40" y="890" width="230" height="60" as="geometry" />
        </mxCell>
      </root>
    </mxGraphModel>
  </diagram>
</mxfile>
